<svg id="svg" version="1.1" xmlns="http://www.w3.org/2000/svg" xmlns:xlink="http://www.w3.org/1999/xlink" width="400" height="400" viewBox="0, 0, 400,400"><g id="svgg"><path id="path0" d="M193.359 1.317 C 192.070 2.006,188.896 4.541,186.306 6.949 C 151.662 39.156,110.403 55.268,57.031 57.432 C 40.136 58.117,37.506 59.077,33.749 65.936 C 30.974 71.002,31.176 165.489,34.020 192.969 C 44.692 296.083,89.797 357.684,181.641 394.574 C 198.742 401.443,201.190 401.474,217.188 395.033 C 310.493 357.465,355.246 296.691,365.980 192.969 C 368.824 165.489,369.026 71.002,366.251 65.936 C 362.494 59.077,359.864 58.117,342.969 57.432 C 289.748 55.274,248.173 39.092,213.990 7.229 C 206.151 -0.078,199.518 -1.979,193.359 1.317 M207.584 39.890 C 241.183 66.866,283.460 82.575,330.548 85.580 L 338.830 86.108 339.365 117.468 C 340.824 203.016,332.159 249.904,307.560 289.571 C 286.766 323.101,249.589 352.060,206.836 368.028 L 200.000 370.581 193.164 368.037 C 164.212 357.260,131.214 335.975,112.907 316.269 C 72.582 272.863,58.874 220.728,60.635 117.468 L 61.170 86.108 69.452 85.580 C 116.802 82.558,162.208 65.461,193.750 38.776 C 200.114 33.392,199.422 33.336,207.584 39.890 M252.344 148.107 C 250.624 148.843,236.781 162.094,215.050 183.804 L 180.491 218.331 164.659 202.587 C 147.454 185.477,147.128 185.265,139.315 186.146 C 131.138 187.068,125.880 195.472,128.136 204.014 C 128.923 206.990,131.728 210.132,150.261 228.797 C 175.300 254.014,177.756 255.578,186.549 251.915 C 191.196 249.978,268.198 172.732,270.836 167.360 C 276.692 155.437,264.609 142.857,252.344 148.107 " stroke="none" fill="#000000" fill-rule="evenodd"></path></g></svg>