<svg id="svg" version="1.1" xmlns="http://www.w3.org/2000/svg" xmlns:xlink="http://www.w3.org/1999/xlink" width="400" height="400" viewBox="0, 0, 400,400"><g id="svgg"><path id="path0" d="M159.375 13.267 C 139.645 22.939,125.153 24.979,90.625 22.946 C 28.536 19.290,31.250 16.089,31.250 92.958 C 31.250 210.092,57.102 276.754,131.538 351.563 C 171.885 392.110,183.036 400.000,200.000 400.000 C 216.964 400.000,228.115 392.110,268.462 351.563 C 342.898 276.754,368.750 210.092,368.750 92.958 C 368.750 16.257,370.889 18.883,312.104 23.438 C 279.052 26.000,265.239 24.032,240.997 13.309 C 204.749 -2.726,192.013 -2.732,159.375 13.267 M228.123 31.893 C 251.850 42.388,267.119 44.567,303.918 42.709 L 350.000 40.382 350.000 97.003 C 350.000 200.418,320.505 272.120,249.940 340.244 C 226.579 362.798,204.106 381.250,200.000 381.250 C 195.894 381.250,173.421 362.798,150.060 340.244 C 79.513 272.136,50.000 200.415,50.000 97.078 L 50.000 40.532 98.438 42.298 C 141.851 43.881,170.287 37.276,197.643 19.256 C 198.065 18.978,211.781 24.664,228.123 31.893 M137.500 138.799 C 137.500 142.951,147.915 157.013,160.643 170.049 L 183.787 193.750 160.643 217.451 C 120.755 258.301,135.449 272.995,176.299 233.107 L 200.000 209.963 223.701 233.107 C 236.737 245.835,250.799 256.250,254.951 256.250 C 268.733 256.250,262.781 241.439,239.357 217.451 L 216.213 193.750 239.357 170.049 C 279.245 129.199,264.551 114.505,223.701 154.393 L 200.000 177.537 176.299 154.393 C 152.311 130.969,137.500 125.017,137.500 138.799 " stroke="none" fill="#000000" fill-rule="evenodd"></path></g></svg>